<?xml version="1.0" standalone="no"?>
<!DOCTYPE svg PUBLIC "-//W3C//DTD SVG 20010904//EN"
 "http://www.w3.org/TR/2001/REC-SVG-20010904/DTD/svg10.dtd">
<svg version="1.0" xmlns="http://www.w3.org/2000/svg"
 width="482.000000pt" height="640.000000pt" viewBox="0 0 482.000000 640.000000"
 preserveAspectRatio="xMidYMid meet">

<g transform="translate(0.000000,640.000000) scale(0.100000,-0.100000)"
fill="#000000" stroke="none">
<path d="M2120 6384 c-140 -30 -282 -127 -348 -237 -19 -31 -49 -102 -67 -159
l-34 -103 -48 -19 c-121 -49 -387 -258 -411 -324 -14 -39 -32 -164 -32 -225
-1 -28 -9 -77 -20 -107 -11 -30 -20 -80 -20 -110 0 -30 -7 -66 -15 -80 -42
-74 -1 -174 117 -285 121 -114 287 -184 443 -186 112 -2 117 -5 137 -79 28
-109 19 -249 -27 -426 -8 -31 -18 -80 -21 -108 -3 -28 -14 -69 -24 -91 -11
-23 -21 -79 -25 -133 -7 -88 -6 -95 17 -130 37 -56 56 -119 62 -207 4 -44 13
-105 21 -135 18 -68 7 -156 -41 -323 -40 -136 -67 -211 -119 -322 -63 -135
-74 -180 -75 -285 0 -52 5 -112 10 -132 18 -63 86 -169 166 -255 79 -87 147
-139 274 -209 41 -23 94 -52 117 -65 l41 -23 -86 -48 c-48 -26 -107 -57 -132
-69 -124 -58 -176 -87 -218 -124 -32 -28 -43 -34 -39 -20 4 11 2 38 -4 60 -5
22 -14 84 -19 137 -14 144 -33 200 -83 244 -23 20 -52 41 -64 47 -12 5 -27 24
-33 42 -10 30 -111 159 -155 198 -87 76 -171 91 -262 44 -79 -41 -133 -96
-134 -138 0 -19 -3 -28 -6 -20 -3 8 0 46 6 85 11 65 40 133 109 259 43 80 19
199 -47 227 -60 25 -158 -10 -231 -83 -29 -30 -70 -108 -116 -222 -5 -13 -10
15 -14 80 -6 108 -21 148 -66 184 -42 33 -87 28 -134 -16 -54 -48 -110 -145
-120 -209 -13 -79 4 -279 29 -342 33 -84 27 -92 -29 -37 -38 38 -54 64 -71
114 -45 139 -74 169 -150 156 -66 -11 -93 -42 -113 -132 -20 -87 -15 -134 26
-263 32 -98 133 -291 185 -351 56 -66 127 -174 154 -234 11 -25 27 -84 35
-133 8 -48 19 -114 25 -146 5 -32 16 -70 23 -85 13 -24 11 -29 -42 -91 -30
-36 -60 -68 -67 -72 -7 -4 -34 -39 -60 -77 -47 -69 -48 -71 -41 -126 3 -31 13
-70 21 -85 8 -16 29 -71 46 -122 17 -51 39 -104 49 -118 9 -14 20 -42 24 -63
8 -41 40 -81 59 -74 7 2 12 23 12 50 0 26 2 47 5 47 3 0 24 -5 47 -10 26 -6
51 -6 65 -1 22 9 20 11 -22 28 -93 37 -145 68 -158 95 -17 37 -64 237 -63 272
1 38 74 165 121 211 64 62 100 31 100 -86 0 -42 -4 -59 -13 -59 -20 0 -37 22
-37 47 0 25 -10 29 -28 11 -27 -27 -4 -114 40 -154 93 -86 240 -70 536 58 44
19 71 37 68 44 -3 7 22 29 56 49 33 21 68 51 78 67 10 16 27 36 39 45 21 14
22 14 15 -11 -5 -20 -1 -30 16 -44 l22 -18 -22 -43 c-59 -116 -247 -223 -450
-255 -60 -9 -76 -16 -78 -30 -4 -18 2 -19 84 -13 117 7 287 69 387 139 16 11
30 19 32 17 2 -2 -8 -47 -21 -99 -13 -52 -24 -115 -24 -139 0 -66 22 -161 37
-161 15 0 15 -1 18 74 2 33 8 84 14 115 6 31 23 114 37 185 14 71 34 146 45
167 10 21 19 56 19 77 0 55 14 89 76 184 71 109 87 130 161 204 l62 62 98 4
c95 5 113 9 233 58 127 52 157 67 212 107 52 39 57 41 63 23 10 -32 34 -50 66
-50 26 0 32 -7 64 -75 73 -153 231 -317 391 -406 110 -62 143 -74 224 -84 30
-3 65 -9 78 -12 42 -10 26 46 -68 233 l-90 179 172 6 c165 5 181 7 348 51 190
50 303 97 370 153 24 20 57 39 74 42 22 4 59 34 123 100 50 51 113 111 139
133 l48 39 19 -52 c10 -29 38 -108 61 -177 83 -242 383 -750 443 -750 27 0 21
24 -20 82 -132 186 -308 514 -373 693 -89 246 -93 259 -87 286 4 22 1 27 -22
33 -29 7 -48 -4 -154 -94 -112 -94 -162 -144 -168 -169 -9 -41 -31 -59 -102
-82 -36 -12 -113 -44 -171 -71 -244 -115 -401 -162 -545 -161 -84 0 -95 3
-163 37 -45 23 -92 57 -122 88 -27 29 -48 53 -47 55 2 1 25 -4 52 -13 27 -8
91 -19 142 -25 76 -9 105 -8 169 5 99 20 234 82 234 108 0 10 -2 18 -4 18 -3
0 -47 -14 -98 -32 -78 -26 -110 -31 -203 -34 -101 -2 -104 -2 -35 5 41 5 89
12 105 16 59 16 231 83 315 123 47 23 130 59 184 81 118 48 166 76 308 181
110 81 169 145 241 262 37 61 47 103 26 110 -7 2 -4 12 8 26 16 20 22 21 56
11 29 -8 79 -5 220 11 100 12 190 23 200 26 32 10 6 24 -43 24 -26 0 -50 4
-52 9 -1 5 -70 16 -151 24 -164 17 -182 24 -223 90 -15 23 -51 65 -80 94 -44
43 -54 59 -60 100 -7 46 -46 102 -81 114 -12 4 -17 241 -7 366 4 56 1 86 -14
135 -11 35 -37 115 -57 178 -27 85 -37 135 -39 193 -1 43 1 80 6 83 5 3 17 23
28 44 23 46 25 105 6 203 -14 74 -9 126 33 322 39 180 59 235 89 247 91 37
251 121 275 145 33 32 72 91 82 123 4 12 42 55 84 96 55 52 88 93 112 141 32
63 34 73 34 168 -1 116 -22 201 -85 346 -79 178 -181 333 -296 450 -117 119
-195 145 -465 156 -119 4 -189 2 -250 -8 -129 -20 -133 -19 -214 60 -90 88
-122 105 -205 106 -55 0 -78 -6 -150 -39 -76 -35 -95 -39 -185 -43 l-100 -5
-92 79 c-172 147 -338 197 -523 157z m225 -75 c69 -19 276 -125 375 -193 75
-51 96 -62 103 -50 5 8 23 14 43 14 21 0 47 9 61 20 29 22 164 68 228 77 31 4
55 -1 90 -16 26 -11 54 -21 61 -21 21 0 100 -113 119 -170 9 -27 21 -53 26
-56 14 -8 49 25 49 46 0 25 222 64 365 64 181 1 251 -24 355 -126 218 -211
365 -497 386 -750 7 -74 5 -81 -26 -145 -57 -115 -204 -233 -291 -233 -48 0
-83 -39 -74 -81 5 -23 0 -30 -41 -58 -41 -27 -49 -29 -57 -16 -5 10 -16 13
-31 9 -19 -4 -27 1 -44 30 l-21 35 37 27 c43 32 53 45 45 56 -2 5 1 16 8 24 9
11 9 18 1 26 -8 8 -19 4 -41 -15 -27 -22 -104 -47 -148 -47 -13 0 -13 3 -3 15
19 22 6 18 -50 -16 -56 -35 -55 -55 3 -61 26 -2 31 -7 29 -23 -15 -91 -13
-102 19 -129 17 -14 40 -26 51 -26 17 0 19 -4 12 -27 -4 -16 -7 -39 -7 -53 1
-99 -39 -350 -57 -350 -4 0 -10 -9 -13 -20 -6 -23 -35 -27 -43 -5 -4 8 -11 12
-18 8 -6 -4 -15 -8 -20 -8 -19 0 -16 -22 8 -57 52 -77 77 -128 74 -151 -1 -13
6 -36 16 -51 28 -44 6 -55 -43 -23 -22 15 -45 27 -50 27 -5 0 -22 11 -38 24
-37 31 -87 56 -112 56 -11 0 -55 18 -98 39 -112 56 -182 84 -318 125 -66 21
-136 43 -157 50 -21 8 -40 10 -45 5 -5 -5 -41 -2 -83 7 -78 16 -175 15 -357
-4 -99 -11 -113 -15 -113 -39 0 -13 18 -15 123 -13 238 5 249 -3 36 -25 -343
-35 -442 -66 -636 -202 -51 -35 -120 -89 -154 -120 -58 -54 -62 -56 -75 -38
-16 22 -18 39 -4 63 5 9 26 60 45 112 33 87 37 109 45 250 5 85 12 178 16 205
4 33 -1 82 -14 145 -14 67 -17 100 -10 113 5 10 8 20 6 21 -20 17 -128 80
-169 100 -75 35 -164 111 -252 214 -81 95 -117 148 -117 173 0 8 -16 51 -35
95 -28 66 -36 98 -41 176 -6 87 -5 100 16 143 12 26 53 77 90 115 53 54 74 69
96 68 27 0 152 23 200 37 16 5 23 1 29 -17 6 -16 10 1 15 62 9 98 30 172 72
252 16 32 27 61 24 66 -15 24 110 154 186 193 101 53 250 73 343 48z m-655
-519 c0 -5 -5 -10 -11 -10 -5 0 -7 5 -4 10 3 6 8 10 11 10 2 0 4 -4 4 -10z
m-426 -533 c9 -32 14 -62 11 -67 -12 -19 -23 -10 -28 23 -18 114 -19 122 -9
112 5 -5 17 -36 26 -68z m-14 -187 c0 -31 161 -257 190 -268 10 -4 47 -35 84
-69 l66 -63 -47 6 c-81 9 -92 13 -131 49 -20 19 -57 49 -82 68 -54 40 -96 116
-111 205 -9 48 -8 66 1 77 12 15 30 12 30 -5z m1873 -1121 c146 -73 250 -139
271 -171 8 -13 24 -54 37 -93 12 -38 25 -74 29 -80 4 -5 11 -28 14 -50 7 -40
36 -85 54 -85 10 0 23 -32 25 -64 3 -36 26 -28 48 17 22 45 62 77 96 77 40 0
114 -33 138 -62 21 -25 25 -40 25 -93 0 -67 -22 -170 -48 -220 -8 -16 -31 -44
-50 -61 -31 -26 -34 -34 -28 -60 11 -43 96 -120 148 -135 24 -6 48 -13 54 -14
6 -2 14 -42 17 -97 11 -153 -26 -307 -109 -455 -19 -35 -36 -63 -38 -63 -2 0
-1 11 2 25 6 36 -5 31 -27 -13 -37 -72 -192 -247 -294 -331 -181 -150 -248
-195 -382 -262 -230 -115 -366 -129 -633 -64 -231 56 -324 101 -410 199 -41
47 -51 42 -17 -7 13 -21 22 -37 18 -37 -10 0 -76 42 -130 83 -63 47 -216 240
-252 317 -23 50 -26 66 -25 170 l1 115 88 220 c71 179 92 244 112 350 32 165
28 154 52 148 15 -4 21 -13 21 -34 0 -32 31 -59 68 -59 45 0 81 28 92 71 17
63 11 69 -72 70 -117 2 -131 7 -146 56 -12 38 -12 48 4 89 22 58 111 149 187
192 32 18 57 36 55 40 -2 4 -10 19 -17 35 -9 17 -22 27 -37 27 -33 0 -103 -57
-154 -127 -25 -34 -48 -62 -51 -62 -13 -2 -16 94 -4 124 36 90 250 249 451
335 123 53 386 96 607 99 l87 1 123 -61z m430 -267 c14 -16 14 -19 -2 -41
l-19 -24 -4 41 c-4 46 1 51 25 24z m61 -75 c-9 -24 -23 -11 -17 14 3 12 9 17
15 11 5 -5 6 -16 2 -25z m45 -26 c15 -15 16 -21 6 -25 -8 -3 -16 0 -19 7 -3 9
-8 8 -15 -3 -12 -17 -15 -2 -5 24 8 20 10 20 33 -3z m-2654 -1096 c53 -52 19
-151 -62 -185 -30 -12 -29 -28 2 -40 l25 -10 -26 -51 c-21 -42 -25 -60 -20
-94 5 -27 1 -58 -9 -88 -9 -27 -13 -58 -9 -74 9 -38 44 -101 60 -107 33 -13
63 51 64 137 0 106 136 171 238 115 57 -32 170 -140 178 -172 14 -57 -26 -106
-86 -106 -38 0 -91 32 -116 70 -20 30 -30 36 -49 32 -18 -3 -33 4 -55 26 -32
32 -35 29 -21 -31 10 -40 -5 -67 -35 -67 -20 0 -18 -9 16 -59 17 -24 36 -65
44 -91 23 -77 53 -126 114 -187 31 -32 70 -84 86 -116 31 -63 49 -69 54 -18 4
40 -36 111 -79 142 l-32 22 79 27 c70 23 82 24 107 12 40 -19 48 -7 27 41 -23
50 -26 129 -6 146 28 23 68 9 98 -34 25 -35 31 -59 45 -172 l16 -131 -27 -56
c-16 -32 -49 -75 -80 -104 -55 -50 -100 -133 -126 -232 -24 -93 -96 -197 -233
-338 -36 -37 -172 -109 -263 -140 -136 -46 -249 -49 -284 -7 -12 14 -11 20 16
103 3 9 13 8 43 -8 22 -11 50 -20 63 -20 l22 0 -21 22 c-13 12 -64 54 -115 92
-77 59 -98 81 -124 132 -19 36 -37 92 -44 135 -7 41 -21 102 -31 136 -10 34
-19 89 -19 122 0 49 -3 61 -18 65 -24 8 -120 117 -164 186 -38 59 -84 169 -95
222 -3 18 -17 49 -29 68 -23 36 -64 174 -64 217 0 13 7 37 15 53 29 55 81 65
122 24 25 -25 26 -28 19 -119 -7 -105 -4 -110 54 -107 40 3 77 -29 125 -108
48 -80 93 -117 109 -92 3 5 -4 27 -15 49 -11 23 -25 72 -30 109 -6 38 -15 92
-20 119 -20 93 -21 133 -7 182 12 42 12 53 0 83 -33 80 14 192 97 235 47 23
49 24 65 6 12 -14 17 -41 19 -102 2 -78 0 -88 -31 -142 -18 -32 -30 -63 -26
-69 4 -6 21 -8 40 -5 30 5 35 3 40 -19 4 -14 4 -55 1 -90 -4 -50 -2 -64 9 -64
7 0 16 -12 19 -27 16 -76 28 -104 56 -127 36 -30 42 -31 60 -10 12 14 10 19
-13 38 -38 30 -48 65 -48 164 0 117 14 196 39 221 11 11 23 37 26 58 15 86 28
117 68 160 39 43 85 72 115 73 7 0 24 -11 37 -25z m2975 -70 c-11 -34 -10 -39
14 -64 14 -15 26 -34 27 -42 1 -7 7 4 14 26 9 27 14 33 14 18 1 -13 -12 -63
-29 -113 -33 -100 -36 -116 -18 -122 36 -12 -318 -386 -404 -427 -27 -13 -48
-27 -48 -33 0 -5 25 5 55 22 30 17 63 30 72 28 37 -7 -300 -208 -348 -208 -11
0 -30 -7 -42 -14 -12 -8 -64 -27 -115 -42 -78 -22 -107 -26 -175 -22 -45 3
-95 11 -111 19 -28 13 -25 14 69 26 110 14 209 41 304 84 103 47 64 53 -79 13
-133 -38 -266 -64 -315 -63 -26 0 -27 2 -10 9 11 4 65 20 120 35 102 28 167
55 242 99 24 14 48 23 55 21 12 -4 49 22 223 154 89 68 274 250 314 311 54 80
159 271 167 303 3 15 9 26 11 23 3 -3 0 -21 -7 -41z m77 -17 c-2 -13 -4 -5 -4
17 -1 22 1 32 4 23 2 -10 2 -28 0 -40z m69 -144 c-4 -34 -3 -53 3 -50 5 4 11
-2 14 -11 2 -10 8 1 14 27 8 35 11 39 12 17 1 -15 -10 -60 -24 -99 -14 -39
-25 -80 -25 -89 0 -29 -175 -252 -238 -304 -55 -45 -160 -101 -170 -90 -3 3 0
5 6 5 7 0 12 8 12 18 0 9 17 29 38 44 107 76 218 202 337 386 33 50 24 70 -12
27 l-25 -30 16 32 c9 17 21 63 28 102 14 85 23 94 14 15z m-2877 -475 c20 -14
50 -23 95 -26 l66 -6 0 -48 c0 -27 1 -52 1 -56 3 -12 -42 -31 -88 -39 -35 -5
-44 -3 -72 22 -27 25 -55 82 -78 157 -8 25 40 23 76 -4z m1061 -210 c0 -6 -26
-36 -59 -69 -41 -41 -84 -70 -142 -98 -46 -23 -109 -55 -139 -72 l-55 -32 45
7 c25 3 60 15 78 26 36 20 78 25 84 9 3 -10 24 3 142 88 50 36 59 29 24 -19
-31 -41 -173 -148 -220 -165 -79 -28 -246 -42 -291 -25 -24 9 -25 12 -15 50
18 71 131 164 233 192 22 6 56 24 76 40 21 16 44 27 52 23 8 -3 35 5 59 18 50
26 110 47 121 41 4 -2 7 -9 7 -14z m137 -28 c4 -15 9 -18 22 -10 11 7 32 4 71
-9 51 -18 58 -24 90 -84 48 -88 95 -153 156 -218 28 -30 81 -100 116 -155 36
-55 86 -125 112 -155 40 -47 96 -136 96 -155 0 -11 -88 9 -161 37 -116 43
-215 121 -285 223 -19 28 -52 75 -74 105 -71 99 -79 150 -55 330 l6 45 -20
-23 c-11 -13 -23 -39 -27 -57 -7 -41 -50 -76 -61 -50 -3 9 0 35 6 57 15 48 6
61 -20 29 -11 -14 -19 -39 -19 -62 0 -34 -3 -39 -24 -39 -37 0 -46 40 -24 113
12 38 60 97 80 97 5 0 12 -9 15 -19z m273 -91 c0 -15 -5 -12 -26 11 -19 22
-19 22 4 10 12 -6 22 -16 22 -21z m249 -66 c10 -9 -35 -3 -49 6 -11 8 -7 9 15
4 17 -4 32 -8 34 -10z m-1369 -269 c0 -2 -29 -41 -65 -85 -36 -44 -65 -78 -65
-76 0 10 51 121 66 144 12 19 64 33 64 17z"/>
<path d="M1772 5775 c0 -16 2 -22 5 -12 2 9 2 23 0 30 -3 6 -5 -1 -5 -18z"/>
<path d="M2552 5652 c-35 -38 -65 -84 -99 -152 -23 -47 -28 -70 -31 -161 -5
-132 9 -184 86 -329 69 -130 92 -162 137 -186 19 -10 35 -24 35 -31 0 -35
-250 102 -345 188 -31 29 -74 78 -95 109 -65 96 -129 267 -107 289 15 15 -11
43 -37 39 -36 -5 -33 -84 7 -200 73 -211 180 -326 421 -454 101 -54 180 -73
222 -53 39 19 41 44 6 74 -71 60 -134 237 -167 473 -25 177 -18 246 38 361 16
32 31 29 35 -6 5 -62 25 -155 63 -293 21 -80 44 -172 49 -205 12 -64 133 -381
155 -404 8 -7 19 -11 27 -9 26 11 68 113 79 194 12 91 61 242 117 364 21 47
43 96 49 110 32 75 91 127 165 145 23 6 30 2 46 -25 64 -104 17 -342 -123
-619 -36 -72 -65 -134 -65 -138 0 -5 18 -16 40 -26 53 -23 152 -22 228 2 53
16 62 17 75 4 13 -13 23 -11 85 16 76 34 82 35 82 23 0 -5 -12 -14 -27 -21
-20 -9 -23 -15 -14 -24 9 -9 18 -8 41 5 17 9 30 13 30 7 0 -22 183 96 237 152
27 30 73 101 73 114 0 16 -31 -3 -103 -61 -99 -80 -125 -94 -137 -74 -7 12
-12 11 -28 -3 -19 -18 -52 -23 -52 -9 0 5 46 39 103 75 113 73 146 102 131
117 -6 6 -38 -4 -89 -30 -84 -42 -100 -47 -89 -29 3 6 1 15 -6 19 -9 6 -35
-11 -79 -51 -70 -64 -155 -111 -236 -131 -27 -7 -54 -18 -58 -25 -5 -8 -30
-13 -68 -13 l-59 0 25 39 c18 26 31 67 40 122 17 104 27 133 77 235 38 76 41
88 46 192 5 106 4 112 -21 155 -63 106 -155 107 -245 1 -131 -155 -175 -215
-211 -288 -41 -82 -71 -185 -71 -243 0 -61 -44 -29 -55 39 -10 68 -71 259
-136 428 -85 221 -87 224 -132 228 -31 3 -42 -2 -65 -26z"/>
<path d="M3136 4948 c-13 -24 -30 -70 -36 -103 -7 -33 -18 -67 -25 -75 -23
-27 -27 -56 -9 -71 15 -12 21 -9 50 25 19 22 36 54 39 75 3 20 10 50 16 66 22
63 28 99 17 112 -17 21 -26 16 -52 -29z"/>
<path d="M2024 4856 c-4 -10 1 -25 11 -36 21 -23 147 -110 195 -135 46 -24
137 -29 148 -9 8 14 10 13 21 0 19 -23 62 -20 68 4 5 20 6 20 39 -1 32 -19 34
-19 41 -3 8 20 -12 37 -85 71 -52 25 -99 25 -129 1 -7 -6 -23 -2 -45 12 -39
24 -64 26 -75 6 -7 -12 -20 -7 -73 26 -36 22 -75 50 -87 61 -21 18 -23 18 -29
3z"/>
<path d="M1770 4743 c1 -23 126 -133 151 -133 4 0 18 17 30 38 12 20 24 39 25
41 2 2 22 -13 44 -33 53 -48 109 -50 101 -3 -2 12 8 8 29 -13 22 -22 29 -24
49 -11 11 7 7 17 -20 50 -50 60 -99 68 -99 15 0 -29 -11 -31 -34 -5 -10 11
-31 25 -47 32 -28 11 -32 10 -67 -24 l-38 -37 -51 45 c-48 42 -73 55 -73 38z"/>
<path d="M3487 4536 c-3 -7 10 -28 29 -47 19 -18 34 -40 34 -49 0 -9 5 -21 11
-27 8 -8 5 -14 -10 -22 -61 -33 6 -57 114 -42 108 16 127 53 34 65 -46 6 -56
13 -111 71 -59 63 -90 79 -101 51z"/>
<path d="M3790 4385 c0 -13 9 -16 43 -13 23 2 42 8 42 13 0 6 -19 11 -42 13
-34 3 -43 0 -43 -13z"/>
<path d="M3628 4171 c59 -21 61 -22 76 -53 15 -29 36 -34 43 -10 4 18 8 19 29
10 30 -14 49 1 40 30 -7 22 -33 28 -161 37 l-80 5 53 -19z"/>
<path d="M2498 3859 c-35 -13 -40 -45 -5 -34 12 5 47 7 77 6 50 -2 54 0 39 14
-20 20 -76 27 -111 14z"/>
<path d="M2498 3779 c-12 -7 -18 -22 -18 -49 0 -43 20 -63 75 -75 17 -4 54
-16 84 -26 67 -25 240 -43 258 -27 19 15 16 56 -4 62 -10 2 -34 8 -53 11 -19
4 -60 20 -90 35 -45 23 -126 50 -220 75 -8 2 -23 0 -32 -6z"/>
<path d="M2643 3385 c-30 -13 -93 -94 -93 -119 0 -5 -10 -20 -21 -33 -19 -19
-20 -25 -8 -39 20 -24 51 -33 74 -21 10 5 52 41 93 80 l74 69 57 -6 c32 -4 65
-4 74 0 22 8 22 31 0 37 -112 30 -110 29 -145 13 -19 -9 -59 -38 -89 -65 -51
-45 -99 -78 -99 -67 0 3 11 29 25 59 25 53 57 80 113 97 l27 8 -25 1 c-14 0
-40 -6 -57 -14z"/>
<path d="M3700 3357 c-33 -29 -130 -142 -130 -150 0 -4 9 -7 20 -7 12 0 20 -7
20 -16 0 -30 32 -84 49 -84 14 0 18 10 19 52 1 53 8 63 55 89 32 18 31 -18 -2
-76 -34 -60 -28 -73 13 -24 46 54 50 131 7 137 -13 2 -28 -1 -34 -7 -36 -36
-21 27 15 66 11 12 17 26 13 32 -9 15 -17 13 -45 -12z"/>
<path d="M2209 3348 c-8 -15 -12 -61 -11 -128 2 -154 -2 -171 -67 -258 -31
-42 -62 -90 -69 -105 -19 -44 -15 -100 11 -137 33 -49 177 -124 177 -92 0 4
-29 37 -65 72 -92 91 -90 113 14 244 51 63 66 117 57 204 -4 37 -9 100 -13
140 -6 79 -15 95 -34 60z"/>
<path d="M2955 3218 c-11 -6 -33 -22 -49 -36 -17 -13 -40 -28 -53 -33 -26 -10
-32 -49 -8 -49 8 0 15 4 15 8 0 5 11 14 24 20 30 13 106 81 106 93 0 12 -11
11 -35 -3z"/>
<path d="M2590 2854 c0 -62 120 -128 221 -123 67 4 76 -9 88 -125 14 -138 46
-143 45 -7 -1 63 -6 83 -35 142 -19 37 -37 68 -41 69 -5 0 -17 -9 -28 -20 -25
-25 -39 -25 -120 3 -50 17 -70 29 -85 54 -24 39 -45 42 -45 7z"/>
<path d="M2287 2753 c-14 -13 -6 -23 30 -38 60 -25 90 1 33 30 -31 16 -53 19
-63 8z"/>
<path d="M2588 2640 c-34 -71 -127 -140 -189 -140 -36 0 -94 32 -109 61 -14
25 -50 25 -50 1 0 -10 -14 -37 -32 -61 -31 -43 -32 -43 -85 -39 -34 3 -61 12
-76 25 -12 11 -30 23 -41 27 -14 5 -17 12 -12 31 9 36 -21 33 -35 -2 -18 -49
15 -147 54 -159 12 -4 27 -14 34 -23 26 -36 176 -6 227 44 16 16 23 17 62 7
71 -19 130 -15 198 15 93 41 116 66 115 127 0 50 -17 114 -18 74 -2 -31 -20
-19 -23 15 l-3 32 -17 -35z m-585 -210 c-7 -8 -33 32 -33 49 0 9 8 3 19 -14
10 -16 16 -32 14 -35z"/>
<path d="M2412 2328 c-26 -26 -40 -32 -74 -32 -24 0 -51 3 -60 8 -13 6 -18 4
-18 -8 0 -19 50 -46 85 -46 56 0 125 56 125 100 0 20 -26 9 -58 -22z"/>
<path d="M2570 2103 c-117 -61 -251 -68 -326 -17 -46 32 -70 18 -35 -20 41
-44 89 -60 181 -60 73 -1 93 3 140 26 62 30 127 86 114 97 -5 4 -38 -7 -74
-26z"/>
<path d="M678 1687 c-73 -28 -182 -124 -188 -167 -4 -26 0 -40 10 -40 5 0 7 6
4 14 -6 16 86 90 156 126 38 19 64 23 180 27 74 3 139 9 145 14 19 18 -19 29
-101 29 -45 0 -101 2 -125 5 -25 3 -60 -1 -81 -8z"/>
<path d="M792 1208 c48 -45 86 -114 132 -235 29 -77 56 -97 56 -44 0 46 -47
183 -78 229 -35 54 -88 92 -125 92 l-30 0 45 -42z"/>
<path d="M3650 1905 c-52 -53 -58 -72 -13 -40 27 19 88 95 76 95 -5 0 -33 -25
-63 -55z"/>
<path d="M2555 1471 c-14 -45 135 -417 171 -428 7 -2 18 3 26 10 12 13 21 5
61 -59 26 -41 54 -74 62 -74 8 0 15 -4 15 -10 0 -5 7 -10 15 -10 30 0 14 47
-41 126 -90 128 -244 363 -270 412 -31 58 -31 58 -39 33z"/>
<path d="M4098 1290 c-39 -30 -60 -82 -52 -128 5 -35 10 -41 44 -51 43 -13 80
-14 95 -3 14 10 35 73 35 104 0 14 -7 42 -15 62 -13 31 -20 36 -49 36 -18 0
-45 -9 -58 -20z m76 -39 c3 -5 -4 -11 -15 -14 -17 -5 -21 -12 -17 -36 3 -24 0
-32 -20 -41 -19 -8 -27 -8 -33 1 -8 14 5 63 26 95 13 20 19 22 35 14 10 -6 21
-14 24 -19z"/>
<path d="M4267 902 c-23 -25 -37 -68 -37 -112 0 -44 6 -48 88 -48 72 -1 92 19
92 92 0 45 -4 58 -22 70 -31 22 -101 21 -121 -2z m90 -39 c4 -10 -3 -24 -21
-40 -35 -30 -54 -29 -66 3 -13 34 -13 33 13 44 35 14 67 11 74 -7z"/>
<path d="M4439 547 c-47 -31 -60 -62 -55 -127 5 -59 29 -90 70 -90 34 1 101
35 124 65 39 49 23 133 -29 161 -39 20 -71 17 -110 -9z m29 -49 c8 -8 15 -8
26 1 27 23 37 7 16 -26 -15 -25 -27 -33 -49 -33 -37 0 -47 15 -30 46 14 27 20
29 37 12z"/>
</g>
</svg>
